<svg width="24" height="24" viewBox="0 0 24 24" xmlns="http://www.w3.org/2000/svg">
    <path d="M15.004 20c-.065 1.5-.869 3-3 3-2.132 0-3.067-1.5-3-3h6zM12 1a2 2 0 0 1 1.983 2.264c2.757.751 4.767 3.03 4.767 5.718v1.495c0 3.622 1.033 4.988 1.715 5.891.361.478.535.724.535 1.088 0 .437-.764.533-3.002.543h-.852c-1.22-.003-2.785-.018-4.77-.02H12c-2.164 0-3.85.017-5.146.02h-.852C3.764 17.99 3 17.893 3 17.456c0-.364.174-.61.535-1.088.682-.903 1.715-2.269 1.715-5.89V8.981c0-2.688 2.01-4.967 4.768-5.719A2 2 0 0 1 12 1z" fill="#585858" fill-rule="evenodd"/>
</svg>
