<svg width="65" height="65" viewBox="0 0 65 65" xmlns="http://www.w3.org/2000/svg" xmlns:xlink="http://www.w3.org/1999/xlink">
    <defs>
        <path id="a" d="M0 0h37.373v47.973H0z"/>
    </defs>
    <g fill="none" fill-rule="evenodd">
        <path d="M25.497 55.587H14.51a5.383 5.383 0 0 1-5.384-5.383v-21.89a5.385 5.385 0 0 1 5.384-5.384h10.986v32.657z" fill="#C7D5F9"/>
        <path d="M52.582 49.393v4.086c-.064.003-.233.02-.403.02-9.024 0-18.048.002-27.073-.002-1.626 0-2.6-1.341-2.054-2.82.272-.737.813-1.151 1.587-1.255.212-.029.427-.027.641-.027 8.936-.002 17.87-.002 26.806-.002h.496M38.14 22.655h-6.796c-1.205-.002-1.903-.612-1.922-1.671-.019-1.036.762-1.755 1.929-1.755 4.566-.002 9.131-.002 13.697 0 1.148 0 1.834.636 1.85 1.69.016 1.07-.686 1.733-1.856 1.734-2.3.005-4.602.002-6.903.002M38.115 29.687c-2.282 0-4.566.01-6.848-.004-1.303-.009-2.04-.876-1.798-2.068a1.666 1.666 0 0 1 1.427-1.327c.23-.028.463-.026.695-.026 4.405-.002 8.81-.002 13.215 0 .214 0 .429-.002.641.02.861.088 1.421.723 1.45 1.634.03.875-.478 1.556-1.297 1.709-.26.048-.53.06-.797.06-2.23.004-4.458.002-6.688.002M38.27 33.115c2.283 0 4.567-.01 6.849.004 1.291.01 2.004.93 1.718 2.172-.147.631-.544 1.034-1.177 1.177-.24.055-.495.071-.742.071-4.512.004-9.024.006-13.536.002-1.33-.002-2.087-.754-1.943-1.906.11-.889.766-1.497 1.716-1.511 1.533-.023 3.068-.009 4.6-.009h2.516" fill="#FFF"/>
        <g transform="translate(19.492 8.955)">
            <mask id="b" fill="#fff">
                <use xlink:href="#a"/>
            </mask>
            <path d="M18.779 24.16h-2.515c-1.533.002-3.068-.014-4.6.01-.95.015-1.606.621-1.717 1.51-.144 1.154.612 1.904 1.943 1.906 4.512.004 9.024.002 13.536-.002.248 0 .502-.016.742-.07.633-.144 1.03-.545 1.177-1.178.286-1.242-.426-2.161-1.718-2.17-2.282-.016-4.566-.004-6.848-.006zm-.156-3.427c2.23 0 4.459.002 6.688-.003.267 0 .537-.011.797-.06.82-.152 1.327-.833 1.298-1.71-.03-.909-.59-1.545-1.45-1.632-.213-.022-.428-.022-.642-.022H12.1c-.233.002-.466 0-.696.028a1.666 1.666 0 0 0-1.428 1.326c-.241 1.192.496 2.06 1.8 2.069 2.282.014 4.565.004 6.847.004zm.025-7.033c2.3 0 4.6.003 6.902-.001 1.17-.003 1.872-.666 1.857-1.737-.016-1.051-.702-1.687-1.85-1.687-4.566-.004-9.131-.003-13.697 0-1.167 0-1.95.719-1.93 1.754.02 1.06.718 1.669 1.922 1.67 2.265.003 4.53.001 6.796.001zM33.09 40.44h-.496c-8.935 0-17.87-.002-26.806 0-.213 0-.429 0-.64.027-.775.105-1.316.52-1.588 1.255-.544 1.478.428 2.82 2.054 2.82 9.025.004 18.05.002 27.075 0 .169 0 .337-.014.401-.017V40.44zM.002 23.845c0-6.157-.004-12.314.003-18.471C.008 2.785 1.495.77 3.852.172A6.116 6.116 0 0 1 5.387 0c10.026.05 20.052.11 30.079.172 1.281.008 1.866.589 1.866 1.872.004 12.189.004 24.376-.008 36.566 0 .305-.088.635-.22.913-.929 1.93-.927 3.847.012 5.77.7 1.431-.082 2.677-1.694 2.677-9.939.002-19.876.007-29.814-.002-3.32-.003-5.596-2.32-5.601-5.705-.012-5.658-.005-11.315-.005-16.971v-1.446z" fill="#507BED" mask="url(#b)"/>
        </g>
    </g>
</svg>
