<svg width="126" height="300" viewBox="0 0 126 300" xmlns="http://www.w3.org/2000/svg">
    <defs>
        <linearGradient x1="50%" y1="0%" x2="50%" y2="100%" id="a">
            <stop stop-color="#507BED" offset="0%"/>
            <stop stop-color="#88B2F7" offset="100%"/>
        </linearGradient>
    </defs>
    <path d="M1519 3330.647h-.007v20.662c0 20.238-16.466 36.691-36.696 36.691h-84.594c-20.237 0-36.703-16.46-36.703-36.69v-159.355c0-4.937 4.026-8.955 8.965-8.955h112.332c20.237 0 36.703 16.453 36.703 36.684v110.963zM1482.941 3136h-159.945c-4.963 0-8.996 4.037-8.996 8.995v207.017c0 46.31 37.709 83.988 84.052 83.988h84.89c46.35 0 84.058-37.677 84.058-83.988v-132.024c0-46.31-37.709-83.988-84.059-83.988z" transform="translate(-1314 -3136)" fill="url(#a)" fill-rule="evenodd"/>
</svg>
