<svg width="323" height="243" viewBox="0 0 323 243" xmlns="http://www.w3.org/2000/svg" xmlns:xlink="http://www.w3.org/1999/xlink">
    <defs>
        <path id="a" d="M0 242h323V0H0z"/>
    </defs>
    <g fill="none" fill-rule="evenodd">
        <path d="M76 88.406c7.32-1.655 12.536 1.748 15.647 10.21 4.667 12.692 10.157-11.313 26.353-8.002L96.04 124l-16.197-9.105L76 88.406z" fill="#000"/>
        <path d="m85.962 192.311-13.37 16.928 30.834 4.094-17.464-21.022zM161 70v172H31.829a18.82 18.82 0 0 1-11.436-3.873c-8.178-6.255-9.805-17.906-3.709-26.157l.188-.25 59.267-77.562 19.92-17.745 19.373-22.115L161 70z" fill="#507BED"/>
        <path stroke="#000" stroke-width="1.145" stroke-linecap="round" stroke-linejoin="round" d="m72 209 21-27"/>
        <path d="M88.033 97.435c-4.753-8.365-14.29-11.812-21.3-7.7-7.012 4.113-8.842 14.228-4.089 22.593 2.802 4.93 7.266 8.152 11.895 9.125l2.1 12.799c10.194 2.868 17.175 2.207 20.94-1.983 3.766-4.19 3.138-9.382-1.882-15.576l-.895-.197-.84-.187c-2.493-.563-4.218-1.01-5.175-1.337 2.676-4.916 2.586-11.659-.754-17.537" fill="#FFAE96"/>
        <path stroke="#000" stroke-width="1.145" stroke-linecap="round" stroke-linejoin="round" d="m81 99 5 4"/>
        <path d="M77 100a1 1 0 1 1 0-2 1 1 0 0 1 0 2M83 96a1 1 0 1 1 0-2 1 1 0 0 1 0 2M88.9 114.033l.019-.033-.34.18-.245.182-.239.173c-1.014.73-1.813 1.218-2.396 1.464l-.066.028a.985.985 0 0 0-.555 1.299c.13.304.405.526.737.593 1.86.377 3.846-.564 5.96-2.824l.225-.244-.577-.137-.554-.135a29.565 29.565 0 0 1-1.969-.546M244 90a5 5 0 1 1 0 10 5 5 0 0 1 0-10" fill="#000"/>
        <path d="m231.977 185.16-4.914 27.873 23.749-3.552-18.835-24.321zM182.024 13l8.46 48.83a27.338 27.338 0 0 0 3.203 8.899l30.1 52.672 22.385 14.21 66.904 76.226c6.039 7.339 4.991 18.189-2.339 24.234A17.183 17.183 0 0 1 299.802 242h-128.15L155 59.456V13h27.024z" fill="#69BCF0"/>
        <path d="m231.977 185.16-5.46 27.873 24.295-3.552-18.835-24.321zM182.024 13l8.294 47.867a27.34 27.34 0 0 0 4.191 10.5l33.237 49.848 18.426 16.396 66.904 76.226c6.039 7.339 4.991 18.189-2.339 24.234A17.183 17.183 0 0 1 299.802 242h-128.15L155 59.456V13h27.024z" fill="#B4C6F7"/>
        <path d="M217 221c-26 1.327-39 8.328-39 21h39v-21z" fill="#FFAE96"/>
        <path stroke="#000" stroke-width="1.145" stroke-linecap="round" stroke-linejoin="round" d="M217 242v-27.756L275 206M251 209l-21-27"/>
        <mask id="b" fill="#fff">
            <use xlink:href="#a"/>
        </mask>
        <path fill="#C4E8FF" mask="url(#b)" d="M108 101h71V64h-71z"/>
        <path fill="#FFF" mask="url(#b)" d="M153 101h25V64h-25zM139 139h71v-37h-71z"/>
        <path fill="#C4E8FF" mask="url(#b)" d="M126 176h71v-37h-71z"/>
        <path fill="#FFF" mask="url(#b)" d="M148 215h71v-37h-71z"/>
        <path fill="#FCBF52" mask="url(#b)" d="M128 242h71v-27h-71z"/>
        <path fill="#C4E8FF" mask="url(#b)" d="M174 139h36v-37h-36z"/>
        <path fill="#FFF" mask="url(#b)" d="M152 176h45v-37h-45z"/>
        <path stroke="#000" stroke-width="1.145" stroke-linecap="round" stroke-linejoin="round" mask="url(#b)" d="M150.5 153v24"/>
        <path fill="#FCBF52" mask="url(#b)" d="M172 215h47v-37h-47z"/>
        <path fill="#FFF" mask="url(#b)" d="M165 242h33v-27h-33z"/>
        <path d="M236.07 100.426c4.737-8.357 14.238-11.8 21.223-7.693 6.985 4.11 8.809 14.215 4.073 22.572-2.792 4.926-7.24 8.144-11.852 9.116l-2.091 12.787c-7.86 4.55-14.203 5.005-19.025 1.365-4.824-3.64-4.512-9.555.937-17.746l.96-.417c2.46-1.077 4.154-1.864 5.082-2.36-2.724-4.92-2.658-11.71.694-17.624" fill="#FFAE96" mask="url(#b)"/>
        <path d="M254.414 100.406c-2.398-1.788-3.229-3.486-2.49-5.094-4.06.178-7.01-1.251-8.856-4.29-2.767-4.558-.277-11.529 8.855-10.993 9.132.536 6.918 7.508 10.515 9.652l.223.136c3.734 2.32 12.38 9.902 6.142 15.683 1.291 5.898-.646 10.099-5.811 12.601-5.166 2.503-9.962 4.47-14.39 5.899l2.214-8.58c4.428-.178 6.918-1.34 7.472-3.485.83-3.218-1.937-5.362-5.258-4.29l.126-2.19a14.03 14.03 0 0 1 1.171-4.857l.087-.192z" fill="#000" mask="url(#b)"/>
        <path stroke="#000" stroke-width="1.145" stroke-linecap="round" stroke-linejoin="round" mask="url(#b)" d="m242 100-5 4"/>
        <path d="M247 101a1 1 0 1 1 0 2 1 1 0 0 1 0-2M241 96a1 1 0 1 1 0 2 1 1 0 0 1 0-2M234.365 118l.315.18.228.182c1.047.826 1.862 1.372 2.444 1.637l.061.028c.485.21.715.79.515 1.299a.963.963 0 0 1-.684.593c-1.641.359-3.389-.477-5.244-2.505l.735-.376a53.233 53.233 0 0 0 1.7-.908l-.07-.13z" fill="#000" mask="url(#b)"/>
        <path fill="#C4E8FF" mask="url(#b)" d="M99.884 1 169 15.468 161.116 52 92 37.532z"/>
        <path fill="#FFF" mask="url(#b)" d="M144.779 10 169 15.18 161.221 52 137 46.82z"/>
        <path stroke="#000" stroke-width="1.145" stroke-linecap="round" stroke-linejoin="round" mask="url(#b)" d="m92 37 69 14"/>
        <path d="M177 13.903C172.238 5.968 163.94 2 152.102 2 140.265 2 131.898 3.7 127 7.101l24.984 5.438c1.037.226 1.701 1.284 1.485 2.363-.04.2-.11.393-.206.571-1.004 1.858-2.416 3.748-4.237 5.67l-.19.2a2.206 2.206 0 0 0 0 3.03 1.996 1.996 0 0 0 2.674.21l13.654-10.467L177 13.903z" fill="#FFAE96" mask="url(#b)"/>
        <path d="M153.947 14.723a1.85 1.85 0 0 1-.194.524c-.982 1.766-2.377 3.563-4.184 5.393a1.986 1.986 0 0 0 0 2.784c.68.687 1.754.77 2.527.193L165 14" stroke="#000" stroke-width="1.145" stroke-linecap="round" stroke-linejoin="round" mask="url(#b)"/>
        <path d="M65.887 106.61c-1.342 3.017.806 6.309 5.372 5.211 4.565-1.097 14.232 10.423 3.49 22.764L43.6 176c-5.043-6.602-5.938-11.813-2.686-15.633 10.742-12.616 1.611-18.65 5.37-24.684 3.76-6.034 14.503-8.639 9.4-17.005-10.205-16.73-1.343-32.364 9.399-35.107 7.161-1.828 12.8.732 16.918 7.68-2.685 1.463-6.266 1.828-10.741 1.097 2.685 4.754 2.416 9.234-.806 13.44-2.149-1.464-3.67-1.189-4.566.822" fill="#000" mask="url(#b)"/>
        <path stroke="#507BED" stroke-width="1.145" stroke-linecap="round" stroke-linejoin="round" mask="url(#b)" d="M1 241.5h322"/>
        <path d="M131.74 175h94.52a2.737 2.737 0 0 1 2.74 2.735v61.53a2.737 2.737 0 0 1-2.74 2.735h-94.52a2.738 2.738 0 0 1-2.74-2.735v-61.53a2.737 2.737 0 0 1 2.74-2.735" fill="#FFF" mask="url(#b)"/>
        <path d="M131.74 175h94.52a2.737 2.737 0 0 1 2.74 2.735v61.53a2.737 2.737 0 0 1-2.74 2.735h-94.52a2.738 2.738 0 0 1-2.74-2.735v-61.53a2.737 2.737 0 0 1 2.74-2.735z" stroke="#C4E8FF" stroke-width="1.145" stroke-linecap="round" stroke-linejoin="round" mask="url(#b)"/>
        <g mask="url(#b)">
            <path d="M129 232.65h94m-94-12.074h94M129 208.5h94m-94-12.075h94m-94-12.075h94" fill="#FFEFEC"/>
            <path d="M129 232.65h94m-94-12.074h94M129 208.5h94m-94-12.075h94m-94-12.075h94" stroke="#C4E8FF" stroke-width="1.145" stroke-linecap="round" stroke-linejoin="round"/>
        </g>
        <path d="M123.532 242H106v-15.036l.48-.091c4.616-.884 7.032-1.787 7.248-2.709 2.653-11.375 10.115-16.181 14.384-20.164v25.395c-.022 1.044.652 1.511 1.707 1.533.196.004.39-.021.579-.076 1.957-.57 4.036-1.524 6.237-2.863l.229-.14a2.062 2.062 0 0 1 2.825.645c.536.85.365 1.961-.404 2.615l-10.596 9.001a7.969 7.969 0 0 1-5.157 1.89" fill="#FFAE96" mask="url(#b)"/>
        <path stroke="#000" stroke-width="1.145" stroke-linecap="round" stroke-linejoin="round" mask="url(#b)" d="M106 242v-27.818L48 206M133 139.5h64M133 101.5h64M144 16l-7 31M153.5 78v24M173.5 115v24"/>
        <path stroke="#FFF" stroke-width="2.29" mask="url(#b)" d="M108 69.5h45M174 107.5h36M125 145.5h25"/>
        <path stroke="#000" stroke-width="1.145" stroke-linecap="round" stroke-linejoin="round" mask="url(#b)" d="m100 1 51 10"/>
    </g>
</svg>
