<svg width="353" height="386" viewBox="0 0 353 386" xmlns="http://www.w3.org/2000/svg" xmlns:xlink="http://www.w3.org/1999/xlink">
    <defs>
        <path id="a" d="M0 0h158v155H0z"/>
        <path id="c" d="M0 0h19v155H0z"/>
    </defs>
    <g fill="none" fill-rule="evenodd">
        <g>
            <mask id="b" fill="#fff">
                <use xlink:href="#a"/>
            </mask>
            <path d="M19.532 0C8.744 0 0 8.742 0 19.526V155h158V13.283C158 5.947 152.051 0 144.712 0H19.532z" fill="#69BCF0" mask="url(#b)"/>
        </g>
        <g transform="translate(0 20)">
            <mask id="d" fill="#fff">
                <use xlink:href="#c"/>
            </mask>
            <path d="M19 155c-10.495 0-19-8.739-19-19.526V0c0 10.787 8.505 19.526 19 19.526V155z" fill="#BAE0F8" mask="url(#d)"/>
        </g>
        <path d="M121 24.514V19h-10.747c-26.466 0-47.994 21.645-47.994 48.242v28.613c0 11.548-8.647 21.093-19.773 22.461v-7.876H37V124h2.744c15.44 0 28.001-12.63 28.001-28.145V67.242c0-22.634 17.598-41.213 39.765-42.634V71.32H78.011v5.514h29.5v45.747H121v-5.514h-8.004V24.514H121z" fill="#D9E2FC"/>
        <path fill="#CEDAFA" d="M37 96h6v-6h-6zM37 46h6V35h-6zM37 65h6V54h-6zM37 83h6V72h-6zM38 28h6v-3h3v-6h-9zM54 26h11v-6H54zM73 26h6v-6h-6zM37 139h6v-6h-6zM52 139h12v-6H52zM75 139h12v-6H75zM95 139h12v-6H95zM117 139h6v-6h-6zM133 123h6v-6h-6zM133 108h6V96h-6zM133 46h6V34h-6zM133 87h6V75h-6zM133 67h6V55h-6zM133 26h6v-6h-6z"/>
        <path d="M307.002 173 291 189.428l.659.88c10.7 14.25 18.723 22.042 24.069 23.38 2.41 2.305 4.51 4.76 6.294 7.363l.216.317c4.503 6.69 7.72 3.313 3.964-3.456 4.271 6.002 7.235 2.274 3.194-4.726 4.847 6.839 8.024 1.15 1.22-7.645a110.01 110.01 0 0 0-2.152-2.695 45.545 45.545 0 0 1 3.738 4.894l.21.321c5.098 7.868 8.697 2.101 1.68-6.968-4.486-5.796-8.787-10.249-12.904-13.358l-.393-.375c-3.37-3.229-7.57-7.58-12.596-13.052L307.002 173zM111.465 105 132 93.72l-.852-1.311c-6.514-10.044-10.783-17.33-12.81-21.856-3.168-7.082-21.044-5.521-23.966 2.046-1.948 5.045 3.75 15.845 17.093 32.401" fill="#FFAE96"/>
        <path d="M130.432 61.132 110 69.338 111.36 73l20.431-8.204c.974-.391 1.457-1.528 1.082-2.539-.376-1.011-1.469-1.515-2.441-1.125" fill="#000"/>
        <path d="M111.432 62.64c-4.798-6.462-10.156-3.257-5.905 1.41l.314.336c.198.214.398.45.6.71-4.524-5.306-9.166-2.423-5.545 1.892-4.139-3.76-7.827-1.012-4.513 2.96-4.005-3.459-7.47-.569-3.881 3.554l.289.325c1.597 1.82 3.32 5.192 5.17 10.119.597 1.588 2.291 2.421 3.863 1.898.082-.028.162-.06.242-.094 1.37-.607 2.02-2.225 1.482-3.648l-.055-.139a3.067 3.067 0 0 0 3.013.261c1.202-.567 1.821-1.912 1.552-3.192a3.067 3.067 0 0 0 2.946.215c1.266-.598 1.885-2.06 1.5-3.399a3.065 3.065 0 0 0 2.882.175c1.387-.653 1.997-2.343 1.364-3.775-1.79-4.042-3.563-7.245-5.318-9.609M139.771 362c-1.506 3.692-3.2 5.998-5.083 6.921-2.825 1.384-10.733-5.26-14.688-2.214 3.968 5.683 9.975 11.064 18.022 16.14 3.288 2.075 7.654 1.278 9.958-1.817l9.02-12.109L139.771 362z" fill="#FFAE96"/>
        <path d="M134.884 368.69c-8.857-4.215-14.67-5.588-17.437-4.123-4.152 2.199 21.865 21.433 27.125 21.433l4.428-6.045a23.897 23.897 0 0 1-9.41-2.473c-2.953-1.466-4.521-4.396-4.706-8.793" fill="#000"/>
        <path d="M293 361.7c3.527 1.846 5.667 3.757 6.421 5.733 1.131 2.964-6.12 10.319-3.44 14.567 5.964-3.478 11.8-9.034 17.512-16.67 2.332-3.118 1.914-7.58-.955-10.175L301.315 345 293 361.7z" fill="#FFAE96"/>
        <path d="m300.34 367.818-.311.494-.299.478c-4.808 7.752-6.59 12.988-5.347 15.705 1.636 3.574 18-12.704 23.42-21.004.342-.523.657-1.093.947-1.707.521-1.105.21-2.397-.769-3.19L313.544 355a22.3 22.3 0 0 1-3.478 8.98c-1.82 2.756-5.062 4.037-9.725 3.838" fill="#000"/>
        <path d="M256.128 209c6.74 18.066 1.618 37.346-15.367 57.838-16.985 20.494-40.71 57.165-71.174 110.015-10.34.645-18.158-.837-23.455-4.449-5.296-3.611-9.34-10.217-12.132-19.819l75.218-141.158 46.91-2.427z" fill="#507BED"/>
        <path d="M175 210c11.383 41.061 29.27 74.206 53.662 99.433 24.392 25.227 42.143 44.416 53.255 57.567 10.086-1.087 17.54-4.308 22.36-9.662 4.819-5.354 7.394-13.27 7.723-23.751-44.718-48.308-68.296-75.28-70.736-80.915-3.658-8.454 3.659-18.116 4.065-26.167.271-5.368-23.172-10.87-70.329-16.505" fill="#507BED"/>
        <path d="M246.413 260c-2.398-3.05-4.772-6.331-4.368-6.331 5.251-7.109 8.08-18.956 4.04-25.669" stroke="#000" stroke-width="1.161" stroke-linecap="round" stroke-linejoin="round"/>
        <path d="m219.198 120-5.406-9.376c7.208-8.154 9.01-16.036 5.406-23.646-5.406-11.414-23.703-8.152-24.534 4.893l-.009.057c-.423 2.829-1.655 5.248-1.655 6.058 0 .544.555.68 1.664.408-1.11 5.98.831 10.6 5.821 13.86l-1.663 7.338 20.376.408z" fill="#FFAE96"/>
        <path d="M324 184.66c-30.559-30.7-57.871-50.089-81.94-58.167-36.102-12.118-60.44.808-88.025-20.601C135.646 91.62 125.911 81.655 124.83 76L94 92.157c15.415 34.74 41.781 55.475 79.1 62.208-.54 7.81 2.705 13.195 9.736 16.157 4.868.808-16.226 19.39-8.113 39.587 26.502 12.118 53.41 11.849 80.723-.808-5.68-17.504-9.465-31.373-11.358-41.606l57.602 43.626 22.31-26.66z" fill="#B4C6F7"/>
        <path d="M237.202 73c-3.037 0-5.53 2.282-5.777 5.186a8.502 8.502 0 0 0-4.91-1.545c-4.577 0-8.3 3.573-8.407 8.02a12.307 12.307 0 0 0-2.017-1.571c-1.683-1.047-3.749-1.847-7.16-1.922-3.41-.076-6.324.633-9.004 2.223-3.077 1.823-5.414 4.891-5.927 9.029l4.567.001a18.514 18.514 0 0 0-.499 3.986l-.002.332a3.305 3.305 0 0 1 1.704-.469c1.8 0 3.258 1.424 3.258 3.183 0 1.758-1.459 3.183-3.258 3.183-.265 0-.523-.031-.77-.089 1.862 5.549 6.305 9.453 11.49 9.453 6.862 0 12.425-6.838 12.425-15.273 0-1.663-.217-3.261-.616-4.76a8.527 8.527 0 0 0 4.216 1.105c4.644 0 8.41-3.677 8.41-8.215 0-.341-.022-.679-.064-1.01.716.31 1.508.482 2.341.482 3.202 0 5.798-2.536 5.798-5.665 0-3.128-2.596-5.664-5.798-5.664" fill="#000"/>
        <path d="M196.5 95a.5.5 0 1 0 0 1 .5.5 0 0 0 0-1" fill="#000"/>
        <path d="M188 250c11.164 23.102 20.832 38.768 29 47M243.64 167c.64-8.475.427-16.808-.64-25" stroke="#000" stroke-width="1.161" stroke-linecap="round" stroke-linejoin="round"/>
        <path d="M204.977 112c-.834.477-2.234.608-4.203.393l-.104-.013-.67 2.59c2.218.308 5.206-1.808 4.989-2.92l-.012-.05z" fill="#000"/>
        <path d="M327 219c-2.1-3-5.1-6-9-9M331 214c-2.1-3-5.1-6-9-9M333 209c-2.1-3-5.1-6-9-9M316 214c0-.47-2-5.647-6-8M174 153c7.565 1.75 13.565 2.75 18 3M114 66l3 8" stroke="#000" stroke-width="1.161" stroke-linecap="round" stroke-linejoin="round"/>
        <path d="M114.05 213.553 106 198.486c9.811-5.18 21.2-4.388 30 1.059L126.913 214c-3.773-2.335-8.659-2.674-12.863-.447" fill="#5C85F3"/>
        <path d="m90.02 225 18.454.604.001-.003c-.085 2.23.43 4.506 1.619 6.618 1.188 2.11 2.904 3.779 4.906 4.958L105.213 252c-4.67-2.751-8.672-6.64-11.442-11.564A29.077 29.077 0 0 1 90.021 225" fill="#0F4CEE"/>
        <path d="M132.904 220.78c-1.186-2.108-2.902-3.777-4.904-4.957L137.786 201c4.669 2.747 8.674 6.638 11.443 11.561A29.072 29.072 0 0 1 152.98 228l-18.466-.602a12.465 12.465 0 0 0-1.61-6.618M114.083 238c3.77 2.335 8.65 2.672 12.855.447L135 253.505c-9.811 5.19-21.199 4.4-30-1.049L114.083 238z" fill="#507BED"/>
        <path d="m133.108 226 17.892.61c-.384 10.736-6.338 20.98-16.582 26.39L126 237.308A13.305 13.305 0 0 0 133.108 226M115 214.698s-6.605 4.555-7.119 11.302L90 225.39s-.02-16.883 16.6-26.39l8.4 15.698z" fill="#69BCF0"/>
        <path d="M41.737 235.571a36.267 36.267 0 0 0-19.396 5.612L21 239a38.752 38.752 0 0 1 20.737-6C63.387 233 81 250.86 81 272.813c0 6.41-1.455 12.528-4.326 18.187l-2.255-1.174c2.685-5.294 4.046-11.019 4.046-17.013 0-20.533-16.476-37.242-36.728-37.242M60 308.747c-5.28 3.343-10.984 5.111-16.952 5.253L43 310.916c5.583-.134 10.917-1.788 15.853-4.916L60 308.747zM5.05 257l2.288 1.003c-1.892 4.603-2.852 9.496-2.852 14.54 0 12.703 6.174 24.401 16.514 31.3L19.653 306C8.599 298.629 2 286.122 2 272.543 2 267.15 3.025 261.921 5.05 257M42.133 297.351c2.424 0 4.813-.363 7.104-1.075l.763 2.532A26.417 26.417 0 0 1 42.133 300c-7.701 0-15.04-3.369-20.133-9.246L23.956 289c4.6 5.308 11.224 8.351 18.177 8.351" fill="#BDCFFF"/>
        <path d="M40.959 247c4.987 0 9.842 1.392 14.041 4.029l-1.367 2.162a23.824 23.824 0 0 0-12.674-3.633c-11.511 0-21.369 8.176-23.436 19.442L15 268.542C17.29 256.061 28.208 247 40.959 247M65.299 266.65l2.072-.65c.418 2.192.629 4.457.629 6.726a35.73 35.73 0 0 1-.959 8.274L65 280.196c.575-2.409.866-4.924.866-7.47a32.61 32.61 0 0 0-.567-6.075" fill="#BDCFFF"/>
        <path d="M43.346 261.112c4.585.624 8.418 4.044 9.637 8.508.54 1.978.531 3.878.131 5.634-.2.874.045 1.788.68 2.422L77 300.886 69.883 308l-23.207-23.208a2.596 2.596 0 0 0-2.423-.677 11.525 11.525 0 0 1-5.634-.132c-4.464-1.217-7.882-5.052-8.507-9.635a11.712 11.712 0 0 1 13.234-13.236" fill="#E8EEFD"/>
        <path d="M3.625 248.374c4.825 0 8.75-3.924 8.75-8.75a.625.625 0 0 1 1.25 0c0 4.826 3.926 8.75 8.75 8.75a.625.625 0 0 1 0 1.252c-4.824 0-8.75 3.923-8.75 8.746a.626.626 0 1 1-1.25 0c0-4.823-3.925-8.746-8.75-8.746a.625.625 0 0 1 0-1.252M52.654 257.846c3.966 0 7.192-3.227 7.192-7.192a.654.654 0 0 1 1.308 0c0 3.965 3.226 7.192 7.192 7.192a.654.654 0 0 1 0 1.308 7.2 7.2 0 0 0-7.192 7.192.654.654 0 0 1-1.308 0 7.2 7.2 0 0 0-7.192-7.192.654.654 0 0 1 0-1.308M10.654 279.846a7.2 7.2 0 0 0 7.191-7.192.654.654 0 0 1 1.307 0 7.2 7.2 0 0 0 7.193 7.192.655.655 0 1 1 0 1.308 7.2 7.2 0 0 0-7.193 7.192.653.653 0 1 1-1.307 0 7.2 7.2 0 0 0-7.191-7.192.653.653 0 1 1 0-1.308M22.654 308.846a7.2 7.2 0 0 0 7.192-7.192.655.655 0 0 1 1.308 0 7.2 7.2 0 0 0 7.192 7.192.654.654 0 0 1 0 1.31c-3.966 0-7.192 3.224-7.192 7.19a.654.654 0 0 1-1.308 0c0-3.966-3.226-7.19-7.192-7.19a.655.655 0 0 1 0-1.31" fill="#CCD9FA"/>
        <path d="M85.202 308.696a2.723 2.723 0 0 1 0 3.853l-3.656 3.654a2.722 2.722 0 0 1-3.85 0L70 308.505 77.506 301l7.696 7.696zM41.999 268a5 5 0 1 1 .002 10 5 5 0 0 1-.002-10" fill="#6E91F0"/>
        <path d="M331.81 133c2.314 0 4.19-1.823 4.19-4.073v-20.854c0-2.25-1.876-4.073-4.19-4.073H286.19c-2.314 0-4.191 1.823-4.191 4.073v20.854c0 2.25 1.877 4.073 4.191 4.073h45.619z" fill="#1C56EF"/>
        <path d="M326.657 133.396a4.151 4.151 0 0 0 5.706-1.398l11.033-18.2a4.16 4.16 0 0 0-1.395-5.712l-38.658-23.482a4.151 4.151 0 0 0-5.706 1.398l-11.034 18.2a4.16 4.16 0 0 0 1.397 5.712l38.657 23.482z" fill="#5E86EE"/>
        <path d="M324.462 131.858c1.113 2.002 3.652 2.73 5.67 1.627l18.71-10.241a4.125 4.125 0 0 0 1.638-5.628l-21.942-39.474c-1.113-2.002-3.652-2.73-5.67-1.627l-18.71 10.241a4.125 4.125 0 0 0-1.638 5.628l21.942 39.474z" fill="#BAE0F8"/>
        <path d="M324 129.81c0 2.314 1.823 4.19 4.073 4.19h20.854c2.25 0 4.073-1.876 4.073-4.19V84.19c0-2.314-1.823-4.191-4.073-4.191h-20.854c-2.25 0-4.073 1.877-4.073 4.191v45.619z" fill="#A8C0FF"/>
        <path d="M326 127a3 3 0 1 0 5.999.001A3 3 0 0 0 326 127" fill="#5E86EE"/>
        <path d="M328 97.195c0 1.55 1.146 2.805 2.56 2.805h13.88c1.414 0 2.56-1.256 2.56-2.805v-.39c0-1.55-1.146-2.805-2.56-2.805h-13.88c-1.414 0-2.56 1.256-2.56 2.805v.39zM328 114.195c0 1.55 1.146 2.805 2.56 2.805h13.88c1.414 0 2.56-1.256 2.56-2.805v-.39c0-1.55-1.146-2.805-2.56-2.805h-13.88c-1.414 0-2.56 1.256-2.56 2.805v.39z" fill="#5480F3"/>
    </g>
</svg>
