<svg width="65" height="65" viewBox="0 0 65 65" xmlns="http://www.w3.org/2000/svg" xmlns:xlink="http://www.w3.org/1999/xlink">
    <defs>
        <path id="a" d="M0 0h41.855v38.873H0z"/>
        <path id="c" d="M0 0h44.616v35.913H0z"/>
    </defs>
    <g fill="none" fill-rule="evenodd">
        <g transform="translate(16.48 10.41)">
            <mask id="b" fill="#fff">
                <use xlink:href="#a"/>
            </mask>
            <path d="M33.914 38.873H7.94A7.94 7.94 0 0 1 0 30.933V7.94A7.94 7.94 0 0 1 7.939 0h25.975a7.94 7.94 0 0 1 7.94 7.94v22.992a7.94 7.94 0 0 1-7.94 7.94" fill="#C7D5F9" mask="url(#b)"/>
        </g>
        <g transform="translate(6.218 18.55)">
            <mask id="d" fill="#fff">
                <use xlink:href="#c"/>
            </mask>
            <path d="M36.676 35.913H7.94A7.94 7.94 0 0 1 0 27.973V7.938A7.94 7.94 0 0 1 7.94 0h28.736a7.94 7.94 0 0 1 7.94 7.939v20.033a7.94 7.94 0 0 1-7.94 7.94" fill="#507BED" mask="url(#d)"/>
        </g>
        <path d="M21.76 36.84c-.003 3.729 3.034 6.773 6.758 6.776 3.728.001 6.771-3.033 6.774-6.758.003-3.73-3.031-6.77-6.758-6.774-3.728-.003-6.77 3.031-6.774 6.757M38 36.87c-.01 5.213-4.266 9.457-9.482 9.453-5.23-.005-9.481-4.28-9.464-9.517.018-5.208 4.287-9.442 9.504-9.429 5.212.013 9.45 4.275 9.442 9.493" fill="#FFF"/>
        <path d="m32.587 36.85-6.107 3.5v-7l6.107 3.5" fill="#FFF"/>
        <path d="M45 36.755a6.668 6.668 0 0 0-1.725-4.412c-.192-.217-.418-.409-.498-.707a.978.978 0 0 1 .403-1.076c.35-.229.82-.224 1.132.048.502.435.903.96 1.26 1.518 1.005 1.564 1.469 3.28 1.377 5.132-.11 2.223-.954 4.135-2.512 5.728-.394.403-.98.42-1.38.057-.399-.362-.432-.944-.056-1.376.38-.435.76-.867 1.055-1.368.627-1.064.93-2.215.944-3.544" fill="#A1B8F1"/>
        <path d="M40.097 39.638c-.01-.262.134-.5.337-.713.3-.314.531-.673.66-1.088.353-1.121.155-2.135-.625-3.022-.179-.204-.343-.41-.366-.694-.035-.442.183-.82.576-.995a.981.981 0 0 1 1.112.23c1.058 1.107 1.534 2.432 1.406 3.952-.1 1.176-.588 2.192-1.417 3.038a.982.982 0 0 1-1.082.232c-.364-.153-.598-.502-.601-.94M12.052 36.946a6.668 6.668 0 0 0 1.725 4.411c.192.217.418.409.498.707a.978.978 0 0 1-.403 1.076c-.35.229-.819.224-1.132-.048-.501-.434-.903-.96-1.26-1.518-1.004-1.564-1.468-3.28-1.377-5.132.11-2.222.954-4.135 2.512-5.728.394-.403.98-.42 1.38-.056.4.362.433.944.056 1.376-.38.434-.76.866-1.055 1.367-.627 1.065-.93 2.215-.944 3.545" fill="#A1B8F1"/>
        <path d="M16.955 34.062c.01.262-.133.5-.337.713-.3.314-.531.674-.66 1.088-.352 1.122-.155 2.135.625 3.023.179.203.343.41.367.693.034.443-.184.82-.576.995a.981.981 0 0 1-1.113-.23c-1.058-1.106-1.533-2.431-1.405-3.951.1-1.177.587-2.192 1.416-3.039a.982.982 0 0 1 1.083-.231c.363.152.597.502.6.94" fill="#A1B8F1"/>
    </g>
</svg>
