<svg width="121" height="148" viewBox="0 0 121 148" xmlns="http://www.w3.org/2000/svg">
    <defs>
        <linearGradient x1="50%" y1="0%" x2="50%" y2="100%" id="a">
            <stop stop-color="#507BED" offset="0%"/>
            <stop stop-color="#88B2F7" offset="100%"/>
        </linearGradient>
    </defs>
    <path d="M81.61 60.386h-.006v17.338c0 16.981-13.779 30.787-30.708 30.787h-70.792c-16.935 0-30.714-13.812-30.714-30.787V-55.991c0-4.143 3.369-7.514 7.502-7.514h94.004c16.935 0 30.714 13.806 30.714 30.781v93.11zM50.896-103H-82.497c-4.14 0-7.503 3.377-7.503 7.526V77.73C-90 116.477-58.551 148-19.902 148h70.798C89.55 148 121 116.477 121 77.73V-32.73C121-71.477 89.551-103 50.896-103z" fill="url(#a)" fill-rule="evenodd"/>
</svg>
