<svg width="700" height="312" viewBox="0 0 700 312" xmlns="http://www.w3.org/2000/svg">
    <g fill="#FFF" fill-rule="nonzero">
        <path d="M124.044 127h28.536c38.976 0 56.55-25.926 56.55-63.51 0-37.758-17.574-62.814-56.724-62.814h-28.362V127zm6.438-5.742V6.418h21.054c35.844 0 50.808 23.664 50.808 57.072 0 33.234-14.964 57.768-50.808 57.768h-21.054zM272.993 76.54l8.874-25.23c5.394-15.312 9.918-28.188 14.616-44.022h.696c4.698 15.834 9.048 28.71 14.442 44.022l8.7 25.23h-47.328zM337.895 127h6.96L299.615.676h-5.742L248.807 127h6.438l15.834-44.892h51.156L337.895 127zM414.286 127h6.786V6.418h40.716V.676H373.57v5.742h40.716zM515.559 127h69.774v-5.742h-63.336V62.446h51.504v-5.742h-51.504V6.418h61.422V.676h-67.86zM.15 309h28.537c38.976 0 56.55-25.926 56.55-63.51 0-37.758-17.574-62.814-56.724-62.814H.15V309zm6.439-5.742v-114.84h21.054c35.844 0 50.808 23.664 50.808 57.072 0 33.234-14.964 57.768-50.808 57.768H6.589zM144.054 309h69.774v-5.742h-63.336v-58.812h51.504v-5.742h-51.504v-50.286h61.422v-5.742h-67.86zM302.921 311.262c23.838 0 39.498-14.094 39.498-33.408 0-19.488-12.528-26.97-26.796-33.408l-19.314-8.7c-8.874-4.002-22.098-9.744-22.098-25.578 0-14.268 11.658-23.664 29.232-23.664 12.876 0 23.142 5.394 30.45 13.224l4.002-4.35c-7.308-8.004-19.14-14.964-34.452-14.964-20.532 0-35.844 12.18-35.844 30.45 0 18.618 14.79 26.1 25.752 30.972l19.314 8.7c12.702 5.742 23.316 10.962 23.316 27.84 0 15.834-12.876 26.796-33.06 26.796-15.138 0-28.536-6.786-37.758-17.574l-4.35 4.524c9.57 11.136 23.49 19.14 42.108 19.14zM398.626 309h6.438V182.676h-6.438zM517.125 311.262c16.53 0 29.232-5.742 37.062-14.094v-49.242h-37.932v5.742h31.146v41.412c-6.264 6.264-17.748 10.092-29.754 10.092-29.406 0-46.98-23.49-46.98-59.682 0-36.192 18.444-58.986 48.372-58.986 14.094 0 23.316 6.09 29.754 13.224l4.002-4.35c-6.438-6.96-16.878-14.964-33.756-14.964-33.234 0-55.158 25.23-55.158 65.076 0 39.846 21.228 65.772 53.244 65.772zM616.136 309h6.09v-82.302c0-12.006-.348-22.794-.696-34.626h.696l14.442 24.882L692.174 309h6.96V182.676h-6.264v81.258c0 11.832.348 23.49 1.044 35.67h-.87l-14.442-24.882-55.68-92.046h-6.786V309z"/>
    </g>
</svg>
