<svg width="528" height="189" viewBox="0 0 528 189" xmlns="http://www.w3.org/2000/svg">
    <path d="M253.91 4.322c4.182-5.056 11.9-5.065 16.103-.092l.198.24 126.805 159.086 112.982-91.445c4.429-3.584 10.888-2.975 14.573 1.322l.195.234c3.584 4.428 2.975 10.888-1.322 14.573l-.234.194-121.204 98.1c-4.452 3.604-10.95 2.967-14.623-1.38l-.194-.236L261.848 27.67 131.642 185.066c-4.222 5.103-12.03 5.057-16.2-.023l-.193-.242L2.698 39.428c-3.55-4.585-2.711-11.18 1.874-14.73 4.505-3.488 10.95-2.74 14.54 1.636l.19.238 104.521 135L253.91 4.322z" fill="#507BED" fill-rule="nonzero" fill-opacity=".2"/>
</svg>
