<svg width="214" height="474" viewBox="0 0 214 474" xmlns="http://www.w3.org/2000/svg">
    <path d="M1.587 467.604c-2.526-5.11-.51-11.283 4.497-13.932l.262-.134 172.3-85.19L4.89 244.039c-6.405-4.583-5.655-14.289 1.285-17.866l.257-.128 177.351-85.681-153.87-120.88c-4.48-3.52-5.324-9.953-1.955-14.502l.185-.242c3.52-4.48 9.952-5.324 14.501-1.955l.242.185 167.1 131.273c6.03 4.737 5.098 14.095-1.66 17.581l-.259.13L31.5 237.255l173.61 124.204c6.37 4.557 5.67 14.198-1.2 17.82l-.257.132-188 92.952c-5.198 2.57-11.496.44-14.066-4.76z" fill="#507BED" fill-rule="nonzero" fill-opacity=".2"/>
</svg>
