<svg width="65" height="65" viewBox="0 0 65 65" xmlns="http://www.w3.org/2000/svg" xmlns:xlink="http://www.w3.org/1999/xlink">
    <defs>
        <path id="a" d="M0 0h31.097v45.779H0z"/>
        <path id="c" d="M0 0h46.328v17.93H0z"/>
        <path id="e" d="M0 46.298h54.26V0H0z"/>
    </defs>
    <g transform="translate(4.764 8.955)" fill="none" fill-rule="evenodd">
        <g transform="translate(23.164)">
            <mask id="b" fill="#fff">
                <use xlink:href="#a"/>
            </mask>
            <path d="M31.097 5.68v34.419c0 3.14-2.541 5.68-5.68 5.68H5.68c-3.14 0-5.68-2.54-5.68-5.68V5.679C0 2.542 2.54 0 5.68 0h19.737a5.678 5.678 0 0 1 5.68 5.68" fill="#C7D5F9" mask="url(#b)"/>
        </g>
        <path d="M54.26 31.852v8.246c0 3.14-2.54 5.68-5.68 5.68H28.844c-3.14 0-5.68-2.54-5.68-5.68v-8.246H54.26z" fill="#507BED"/>
        <path d="M40.922 14.144H5.686C2.546 14.144 0 16.34 0 19.047v9.321c7.272 2.083 14.544 4.162 21.81 6.262.9.26 1.854.26 2.755-.001 7.248-2.102 14.509-4.174 21.764-6.26v-9.563c0-2.575-2.42-4.662-5.407-4.662" fill="#507BED"/>
        <g transform="translate(0 28.368)">
            <mask id="d" fill="#fff">
                <use xlink:href="#c"/>
            </mask>
            <path d="M23.665 6.522c-.313.09-.643.09-.956 0C15.146 4.333 7.572 2.17 0 0v13.27c0 2.574 2.42 4.66 5.407 4.66h35.517c2.985 0 5.405-2.086 5.405-4.66V0c-7.555 2.173-15.115 4.33-22.663 6.522" fill="#A1B8F1" mask="url(#d)"/>
        </g>
        <mask id="f" fill="#fff">
            <use xlink:href="#e"/>
        </mask>
        <path d="M15.203 12.96h15.921V8.912H15.203v4.048zm-4.586-3.495v4.679H35.71v-4.68a3.835 3.835 0 0 0-3.835-3.835H14.452a3.836 3.836 0 0 0-3.835 3.836z" fill="#507BED" mask="url(#f)"/>
        <path d="M35.048 26.191H11.281a.814.814 0 1 1 0-1.63l23.767.001a.815.815 0 0 1 0 1.63M35.048 21.686H11.281a.814.814 0 1 1 0-1.63h23.767a.815.815 0 0 1 0 1.63" fill="#FFF" mask="url(#f)"/>
    </g>
</svg>
