<svg width="65" height="65" viewBox="0 0 65 65" xmlns="http://www.w3.org/2000/svg" xmlns:xlink="http://www.w3.org/1999/xlink">
    <defs>
        <path id="a" d="M0 0h49.056v49.056H0z"/>
    </defs>
    <g fill="none" fill-rule="evenodd">
        <g transform="translate(7.673 7.5)">
            <mask id="b" fill="#fff">
                <use xlink:href="#a"/>
            </mask>
            <path d="M49.056 24.528c0 13.546-10.982 24.528-24.528 24.528S0 38.074 0 24.528 10.982 0 24.528 0s24.528 10.982 24.528 24.528" fill="#507BED" mask="url(#b)"/>
        </g>
        <path d="M47.458 32.028c0 8.426-6.83 15.258-15.258 15.258-8.426 0-15.257-6.832-15.257-15.258 0-8.426 6.83-15.258 15.257-15.258 8.428 0 15.258 6.832 15.258 15.258" fill="#A1B8F1"/>
        <path d="M30.952 25.953c-.11-.126-.2-.224-.287-.328-.388-.472-.356-1.131.076-1.537.423-.397 1.084-.42 1.507 0a86.213 86.213 0 0 1 2.276 2.336c.386.411.38 1.05-.017 1.451a80.02 80.02 0 0 1-2.362 2.3c-.428.4-1.106.348-1.507-.065a1.109 1.109 0 0 1-.03-1.512c.083-.093.188-.168.283-.251l-.045-.08c-.141.046-.285.088-.425.14-2.066.778-3.423 2.945-3.191 5.095.254 2.355 1.992 4.19 4.267 4.503 3.008.413 5.63-1.823 5.71-4.871.015-.572.277-.959.759-1.125.432-.148.919-.04 1.182.338.149.214.266.503.27.759.047 3.348-2.504 6.43-5.804 7.039-4.08.752-7.821-1.858-8.533-5.954-.635-3.65 1.878-7.37 5.501-8.148.11-.024.221-.054.37-.09" fill="#FFF"/>
    </g>
</svg>
