<svg width="65" height="65" viewBox="0 0 65 65" xmlns="http://www.w3.org/2000/svg" xmlns:xlink="http://www.w3.org/1999/xlink">
    <defs>
        <path id="a" d="M0 0h47.383v38.13H0z"/>
        <path id="c" d="M0 0h47.383v7.81H0z"/>
    </defs>
    <g fill="none" fill-rule="evenodd">
        <g transform="translate(1.855 16.91)">
            <mask id="b" fill="#fff">
                <use xlink:href="#a"/>
            </mask>
            <path d="M47.383 7.273v23.584a7.274 7.274 0 0 1-7.273 7.272H7.272a7.274 7.274 0 0 1-7.273-7.272V7.273A7.274 7.274 0 0 1 7.272 0H40.11a7.274 7.274 0 0 1 7.273 7.273" fill="#507BED" mask="url(#b)"/>
        </g>
        <g transform="translate(1.855 47.23)">
            <mask id="d" fill="#fff">
                <use xlink:href="#c"/>
            </mask>
            <path d="M47.383 0v2.294a5.518 5.518 0 0 1-5.515 5.515H5.515A5.518 5.518 0 0 1-.001 2.294V0h47.384z" fill="#A1B8F1" mask="url(#d)"/>
        </g>
        <path d="M26.217 35.982c-.01 2.536-.847 4.733-2.68 6.518-.755.735-1.642 1.283-2.686 1.759.982.486 1.802 1.063 2.509 1.799 1.449 1.507 2.167 3.318 2.246 5.385.045 1.198.016 2.4.02 3.6H9.561c.052-1.507-.112-3.018.097-4.522.384-2.776 1.87-4.77 4.317-6.082l.3-.16c-3.464-1.702-5.286-4.425-5.312-8.286.083-1.758.653-3.349 1.635-4.799.05-.058.103-.115.15-.175 2.392-2.99 6.146-4.098 9.68-2.87 1.7.593 3.03 1.678 4.15 3.054.953 1.453 1.53 3.035 1.639 4.78" fill="#FFF"/>
        <path d="M56.584 8.955H33.946a5.514 5.514 0 0 0-5.515 5.514v10.526a5.515 5.515 0 0 0 5.515 5.516h.627a.7.7 0 0 1 .7.7l.004 3.946c0 .755.94 1.105 1.434.535l4.09-4.708a1.378 1.378 0 0 1 1.04-.473h14.743a5.515 5.515 0 0 0 5.514-5.516V14.47a5.514 5.514 0 0 0-5.514-5.514" fill="#A1B8F1"/>
        <path d="M56.71 20.687H33.82a.785.785 0 0 1 0-1.57h22.89a.785.785 0 0 1 0 1.57M56.71 25.026H43.793a.785.785 0 0 1 0-1.57H56.71c.433 0 .784.352.784.786 0 .433-.351.784-.784.784M56.71 16.348H33.82a.786.786 0 0 1 0-1.57h22.89a.785.785 0 0 1 0 1.57" fill="#FFF"/>
    </g>
</svg>
